<?xml version="1.0" standalone="no"?>
<!DOCTYPE svg PUBLIC "-//W3C//DTD SVG 20010904//EN"
 "http://www.w3.org/TR/2001/REC-SVG-20010904/DTD/svg10.dtd">
<svg version="1.0" xmlns="http://www.w3.org/2000/svg"
 width="1280.000000pt" height="1280.000000pt" viewBox="0 0 1280.000000 1280.000000"
 preserveAspectRatio="xMidYMid meet">
<metadata>
Created by potrace 1.16, written by Peter Selinger 2001-2019
</metadata>
<g transform="translate(0.000000,1280.000000) scale(0.100000,-0.100000)"
fill="#000000" stroke="none">
<path d="M2040 11505 c-357 -80 -630 -337 -732 -691 l-23 -79 0 -2095 0 -2095
23 -79 c97 -334 344 -581 678 -678 69 -20 101 -23 254 -23 153 0 185 3 254 23
335 97 581 343 678 678 l23 79 0 2095 0 2095 -23 79 c-96 332 -343 580 -673
677 -97 28 -359 36 -459 14z"/>
<path d="M5396 11504 c-257 -33 -546 -119 -781 -233 -174 -84 -274 -150 -383
-255 -151 -145 -265 -326 -331 -522 -64 -191 -61 -78 -61 -2166 0 -1263 4
-1931 11 -1996 41 -385 194 -811 402 -1122 35 -52 286 -392 558 -755 272 -363
521 -703 554 -755 126 -204 231 -443 293 -665 75 -268 92 -415 99 -860 5 -392
10 -428 65 -540 81 -167 235 -293 415 -339 79 -21 272 -21 387 -1 179 31 371
110 515 212 92 65 238 210 305 302 73 101 139 233 176 348 62 193 60 137 60
1614 l0 1349 1209 0 c1313 0 1280 -1 1463 56 191 60 357 162 509 314 266 264
389 575 376 953 -5 152 -6 157 -405 2147 -221 1097 -412 2027 -425 2065 -65
187 -154 331 -294 476 -196 202 -429 327 -699 374 -125 22 -3848 21 -4018 -1z"/>
</g>
</svg>
