<svg width="24" height="24" xmlns="http://www.w3.org/2000/svg">

 <g>
  <title>background</title>
  <rect fill="none" id="canvas_background" height="402" width="582" y="-1" x="-1"/>
 </g>
 <g>
  <title>Layer 1</title>
  <path fill="#c94456" id="svg_1" fill-rule="evenodd" d="m12,23c-6.07513,0 -11,-4.92487 -11,-11c0,-6.07513 4.92487,-11 11,-11c6.07513,0 11,4.92487 11,11c0,6.07513 -4.92487,11 -11,11zm0,-2c4.97056,0 9,-4.02944 9,-9c0,-4.97056 -4.02944,-9 -9,-9c-4.97056,0 -9,4.02944 -9,9c0,4.97056 4.02944,9 9,9zm0,-7.58579l-3.29289,3.2929l-1.41422,-1.41422l3.2929,-3.29289l-3.2929,-3.29289l1.41422,-1.41422l3.29289,3.2929l3.29289,-3.2929l1.41422,1.41422l-3.2929,3.29289l3.2929,3.29289l-1.41422,1.41422l-3.29289,-3.2929z"/>
 </g>
</svg>